<?xml version="1.0" encoding="UTF-8" standalone="no"?>
<!DOCTYPE svg PUBLIC "-//W3C//DTD SVG 1.1//EN" "http://www.w3.org/Graphics/SVG/1.1/DTD/svg11.dtd">
<svg width="100%" height="100%" viewBox="0 0 171 379" version="1.1" xmlns="http://www.w3.org/2000/svg" xmlns:xlink="http://www.w3.org/1999/xlink" xml:space="preserve" xmlns:serif="http://www.serif.com/" style="fill-rule:evenodd;clip-rule:evenodd;stroke-linejoin:round;stroke-miterlimit:2;">
    <g transform="matrix(1,0,0,1,-5e-05,-104.58)">
        <path d="M80.937,471.198L93.197,471.198L99.029,423.91L80.935,423.911L80.937,471.198Z" style="fill:rgb(255,184,184);fill-rule:nonzero;"/>
        <g transform="matrix(-1,4.57276e-05,-4.57276e-05,-1,338.575,1158.94)">
            <path d="M221.703,676.369L260.234,676.369L260.234,691.256L236.59,691.256C228.423,691.256 221.703,684.536 221.703,676.369L221.703,676.369Z" style="fill:rgb(47,46,65);fill-rule:nonzero;"/>
        </g>
        <path d="M34.937,471.198L47.197,471.198L53.029,423.91L34.935,423.911L34.937,471.198Z" style="fill:rgb(255,184,184);fill-rule:nonzero;"/>
        <g transform="matrix(-1,4.57276e-05,-4.57276e-05,-1,246.575,1158.94)">
            <path d="M175.703,676.369L214.234,676.369L214.234,691.256L190.59,691.256C182.423,691.256 175.703,684.536 175.703,676.369L175.703,676.369Z" style="fill:rgb(47,46,65);fill-rule:nonzero;"/>
        </g>
        <g transform="matrix(1,0,0,1,-143.393,-208.674)">
            <path d="M179.827,539.034C182.897,537.059 184.758,533.649 184.758,529.999C184.758,527.289 183.733,524.677 181.889,522.691L189.962,408.133L166.709,410.388L166.07,522.575C164.179,524.579 163.124,527.232 163.124,529.988C163.124,535.913 168,540.789 173.925,540.789C176.021,540.789 178.072,540.179 179.827,539.034L179.827,539.034Z" style="fill:rgb(255,184,184);fill-rule:nonzero;"/>
        </g>
        <g transform="matrix(1,0,0,1,-143.393,-208.674)">
            <path d="M224.695,656.055C222.43,656.048 220.503,654.338 220.227,652.09L213.1,592.487C212.891,590.736 211.389,589.402 209.625,589.402C207.909,589.402 206.434,590.664 206.168,592.359L197.191,649.427C196.856,651.61 194.954,653.236 192.745,653.227L178.195,653.227C175.726,653.227 173.695,651.196 173.695,648.727C173.695,648.716 173.695,648.704 173.695,648.693L180.639,522.159C180.645,519.942 182.297,518.046 184.493,517.739L238.487,509.901C238.7,509.87 238.916,509.855 239.132,509.855C241.601,509.855 243.633,511.887 243.633,514.356C243.633,514.366 243.633,514.376 243.633,514.387L242.691,650.943C242.675,653.319 240.779,655.294 238.405,655.406L224.909,656.05C224.837,656.054 224.766,656.055 224.695,656.055Z" style="fill:rgb(47,46,65);fill-rule:nonzero;"/>
        </g>
        <g transform="matrix(1,0,0,1,-143.393,-208.674)">
            <path d="M196.703,526.939C191.509,526.919 186.358,526.002 181.477,524.228C179.788,523.606 178.634,522.022 178.559,520.223C178.093,509.887 175.368,456.679 167.434,424.224C164.287,411.232 169.287,397.552 180.071,389.651C180.498,389.345 180.933,389.043 181.376,388.748C190.695,382.544 202.599,381.611 212.772,386.287C223.28,390.989 230.622,400.831 232.135,412.244L245.073,508.295C245.24,509.508 244.904,510.738 244.141,511.696C243.396,512.648 242.291,513.253 241.088,513.369C236.605,513.816 227.307,515.554 215.408,522.165C209.686,525.335 203.244,526.979 196.703,526.939Z" style="fill:rgb(63,61,86);fill-rule:nonzero;"/>
        </g>
        <g transform="matrix(1,0,0,1,-143.393,-208.674)">
            <path d="M180.886,447.321L159.595,441.548C157.214,440.9 155.787,438.41 156.43,436.027L163.914,408.422C165.375,403.036 170.3,399.268 175.881,399.268C182.683,399.268 188.28,404.865 188.28,411.667C188.28,411.894 188.273,412.122 188.261,412.349L186.557,443.225C186.426,445.597 184.439,447.478 182.064,447.478C181.666,447.478 181.27,447.425 180.886,447.321Z" style="fill:rgb(63,61,86);fill-rule:nonzero;"/>
        </g>
        <circle cx="61.193" cy="140.01" r="24.561" style="fill:rgb(255,184,184);"/>
        <g transform="matrix(1,0,0,1,-143.393,-208.674)">
            <path d="M293.59,396.939C293.467,397.478 293.387,398.027 293.351,398.579L250.393,423.361L239.952,417.35L228.821,431.922L251.158,447.843L300.166,409.18C301.332,409.611 302.565,409.832 303.808,409.832C309.566,409.832 314.304,405.094 314.304,399.337C314.304,393.579 309.566,388.841 303.808,388.841C298.952,388.841 294.699,392.211 293.59,396.939L293.59,396.939Z" style="fill:rgb(255,184,184);fill-rule:nonzero;"/>
        </g>
        <g transform="matrix(1,0,0,1,-143.393,-208.674)">
            <path d="M246.833,424.557L228.329,436.565C226.257,437.906 223.45,437.308 222.104,435.24L206.534,411.248C205.23,409.238 204.536,406.893 204.536,404.498C204.536,397.696 210.133,392.099 216.935,392.099C220.222,392.099 223.378,393.407 225.702,395.732L247.566,417.6C248.409,418.444 248.884,419.589 248.884,420.782C248.884,422.305 248.111,423.728 246.833,424.557Z" style="fill:rgb(63,61,86);fill-rule:nonzero;"/>
        </g>
        <g transform="matrix(1,0,0,1,-143.393,-208.674)">
            <path d="M187.206,368.116C191.788,372.996 200.297,370.376 200.894,363.708C200.941,363.191 200.938,362.67 200.884,362.153C200.576,359.199 198.869,356.518 199.278,353.399C199.371,352.623 199.66,351.883 200.118,351.25C203.769,346.361 212.34,353.437 215.786,349.011C217.899,346.297 215.416,342.024 217.037,338.99C219.177,334.987 225.516,336.962 229.491,334.769C233.914,332.33 233.649,325.544 230.738,321.417C227.187,316.383 220.962,313.697 214.814,313.31C208.667,312.923 202.562,314.585 196.822,316.821C190.301,319.363 183.834,322.875 179.821,328.609C174.941,335.582 174.472,344.957 176.912,353.111C178.397,358.071 183.464,364.13 187.206,368.116Z" style="fill:rgb(47,46,65);fill-rule:nonzero;"/>
        </g>
        <g transform="matrix(1,0,0,1,-143.393,-208.674)">
            <path d="M284.393,691.326L144.393,691.326C143.844,691.326 143.393,690.875 143.393,690.326C143.393,689.777 143.844,689.326 144.393,689.326L284.393,689.326C284.942,689.326 285.393,689.777 285.393,690.326C285.393,690.875 284.942,691.326 284.393,691.326Z" style="fill:rgb(63,61,86);fill-rule:nonzero;"/>
        </g>
    </g>
</svg>
